<svg width="1024" height="963" viewBox="0 0 1024 963" fill="none" xmlns="http://www.w3.org/2000/svg">
<g filter="url(#filter0_f_40_29)">
<ellipse cx="512" cy="516" rx="254" ry="216" fill="url(#paint0_radial_40_29)" fill-opacity="0.3"/>
</g>
<g style="mix-blend-mode:hard-light" filter="url(#filter1_f_40_29)">
<path fill-rule="evenodd" clip-rule="evenodd" d="M253.555 253.691C234.166 257.325 210.787 267.678 194.817 279.704C167.671 300.145 143 336.666 143 356.409C143 364.909 148.741 370.132 158.085 370.132C161.927 370.132 162.182 370.298 161.535 372.382C161.15 373.62 160.598 381.832 160.308 390.632C159.843 404.693 160.039 407.723 161.922 415.632C165.896 432.325 175.89 449.337 188.675 461.172C204.384 475.712 222.721 483.721 246.31 486.344C256.49 487.476 257.088 487.667 256.498 489.589C255.106 494.128 254.72 539.224 255.981 549.919C259.914 583.268 273.139 615.139 294.865 643.632C306.099 658.365 327.932 678.511 345 689.893C389.521 719.583 458.858 734.6 535.26 731.098C567.926 729.601 590.289 726.361 615.5 719.475C682.821 701.087 736.946 652.57 757.886 591.84C766.113 567.983 768.638 548.162 767.596 515.632C767.226 504.082 766.675 493.013 766.37 491.033L765.817 487.435L774.158 486.74C817.12 483.16 850.475 457.074 861.243 418.632C863.868 409.261 864.639 388.453 862.753 377.882L861.37 370.132L865.435 370.13C873.132 370.128 881 363.641 881 357.298C881 349.587 875.454 334.787 868.01 322.632C833.048 265.543 764.751 237.996 710.358 259.044C700.723 262.772 689.715 269.233 678 278.038C667.891 285.635 644.942 308.477 640 315.862C637.584 319.472 636.036 320.902 635 320.482C615.25 312.464 578.262 303.843 547 299.972C533.368 298.284 489.859 298.263 475.5 299.938C447.293 303.227 421.534 308.84 399.752 316.442L387.004 320.891L382.317 314.262C376.27 305.71 356.765 286.218 346.479 278.449C331.01 266.765 317.133 259.319 303 255.12C293.122 252.185 265.803 251.396 253.555 253.691ZM525.775 474.141C542.235 479.919 552.81 493.069 560.962 517.895C572.367 552.627 577.508 595.826 572.237 612.632C569.49 621.391 566.737 625.917 560.043 632.68C553.631 639.158 543.575 644.286 532.5 646.726C522.255 648.984 501.437 649.041 491.343 646.839C461.912 640.42 447.619 620.374 449.483 588.132C451.047 561.084 460.42 521.584 470.009 501.632C476.59 487.939 487.236 478.078 499.762 474.074C507.624 471.56 518.502 471.589 525.775 474.141ZM389.384 484.362C395.107 486.072 401.281 492.491 402.955 498.473C406.617 511.549 396.619 525.041 383.218 525.11C364.274 525.207 354.944 501.775 368.761 488.803C374.23 483.668 381.688 482.062 389.384 484.362ZM648.277 484.192C656.216 486.397 662.933 495.325 662.978 503.733C663.025 512.411 659.127 518.893 651.611 522.639C642.535 527.161 632.471 525.166 626.243 517.61C613.065 501.623 628.229 478.625 648.277 484.192Z" stroke="url(#paint1_linear_40_29)" stroke-width="6" stroke-linejoin="round"/>
</g>
<g style="mix-blend-mode:hard-light" filter="url(#filter2_f_40_29)">
<path fill-rule="evenodd" clip-rule="evenodd" d="M253.555 253.691C234.166 257.325 210.787 267.678 194.817 279.704C167.671 300.145 143 336.666 143 356.409C143 364.909 148.741 370.132 158.085 370.132C161.927 370.132 162.182 370.298 161.535 372.382C161.15 373.62 160.598 381.832 160.308 390.632C159.843 404.693 160.039 407.723 161.922 415.632C165.896 432.325 175.89 449.337 188.675 461.172C204.384 475.712 222.721 483.721 246.31 486.344C256.49 487.476 257.088 487.667 256.498 489.589C255.106 494.128 254.72 539.224 255.981 549.919C259.914 583.268 273.139 615.139 294.865 643.632C306.099 658.365 327.932 678.511 345 689.893C389.521 719.583 458.858 734.6 535.26 731.098C567.926 729.601 590.289 726.361 615.5 719.475C682.821 701.087 736.946 652.57 757.886 591.84C766.113 567.983 768.638 548.162 767.596 515.632C767.226 504.082 766.675 493.013 766.37 491.033L765.817 487.435L774.158 486.74C817.12 483.16 850.475 457.074 861.243 418.632C863.868 409.261 864.639 388.453 862.753 377.882L861.37 370.132L865.435 370.13C873.132 370.128 881 363.641 881 357.298C881 349.587 875.454 334.787 868.01 322.632C833.048 265.543 764.751 237.996 710.358 259.044C700.723 262.772 689.715 269.233 678 278.038C667.891 285.635 644.942 308.477 640 315.862C637.584 319.472 636.036 320.902 635 320.482C615.25 312.464 578.262 303.843 547 299.972C533.368 298.284 489.859 298.263 475.5 299.938C447.293 303.227 421.534 308.84 399.752 316.442L387.004 320.891L382.317 314.262C376.27 305.71 356.765 286.218 346.479 278.449C331.01 266.765 317.133 259.319 303 255.12C293.122 252.185 265.803 251.396 253.555 253.691ZM525.775 474.141C542.235 479.919 552.81 493.069 560.962 517.895C572.367 552.627 577.508 595.826 572.237 612.632C569.49 621.391 566.737 625.917 560.043 632.68C553.631 639.158 543.575 644.286 532.5 646.726C522.255 648.984 501.437 649.041 491.343 646.839C461.912 640.42 447.619 620.374 449.483 588.132C451.047 561.084 460.42 521.584 470.009 501.632C476.59 487.939 487.236 478.078 499.762 474.074C507.624 471.56 518.502 471.589 525.775 474.141ZM389.384 484.362C395.107 486.072 401.281 492.491 402.955 498.473C406.617 511.549 396.619 525.041 383.218 525.11C364.274 525.207 354.944 501.775 368.761 488.803C374.23 483.668 381.688 482.062 389.384 484.362ZM648.277 484.192C656.216 486.397 662.933 495.325 662.978 503.733C663.025 512.411 659.127 518.893 651.611 522.639C642.535 527.161 632.471 525.166 626.243 517.61C613.065 501.623 628.229 478.625 648.277 484.192Z" stroke="url(#paint2_linear_40_29)" stroke-opacity="0.7" stroke-width="8" stroke-linejoin="round"/>
</g>
<g style="mix-blend-mode:hard-light" filter="url(#filter3_f_40_29)">
<path fill-rule="evenodd" clip-rule="evenodd" d="M253.555 253.691C234.166 257.325 210.787 267.678 194.817 279.704C167.671 300.145 143 336.666 143 356.409C143 364.909 148.741 370.132 158.085 370.132C161.927 370.132 162.182 370.298 161.535 372.382C161.15 373.62 160.598 381.832 160.308 390.632C159.843 404.693 160.039 407.723 161.922 415.632C165.896 432.325 175.89 449.337 188.675 461.172C204.384 475.712 222.721 483.721 246.31 486.344C256.49 487.476 257.088 487.667 256.498 489.589C255.106 494.128 254.72 539.224 255.981 549.919C259.914 583.268 273.139 615.139 294.865 643.632C306.099 658.365 327.932 678.511 345 689.893C389.521 719.583 458.858 734.6 535.26 731.098C567.926 729.601 590.289 726.361 615.5 719.475C682.821 701.087 736.946 652.57 757.886 591.84C766.113 567.983 768.638 548.162 767.596 515.632C767.226 504.082 766.675 493.013 766.37 491.033L765.817 487.435L774.158 486.74C817.12 483.16 850.475 457.074 861.243 418.632C863.868 409.261 864.639 388.453 862.753 377.882L861.37 370.132L865.435 370.13C873.132 370.128 881 363.641 881 357.298C881 349.587 875.454 334.787 868.01 322.632C833.048 265.543 764.751 237.996 710.358 259.044C700.723 262.772 689.715 269.233 678 278.038C667.891 285.635 644.942 308.477 640 315.862C637.584 319.472 636.036 320.902 635 320.482C615.25 312.464 578.262 303.843 547 299.972C533.368 298.284 489.859 298.263 475.5 299.938C447.293 303.227 421.534 308.84 399.752 316.442L387.004 320.891L382.317 314.262C376.27 305.71 356.765 286.218 346.479 278.449C331.01 266.765 317.133 259.319 303 255.12C293.122 252.185 265.803 251.396 253.555 253.691ZM525.775 474.141C542.235 479.919 552.81 493.069 560.962 517.895C572.367 552.627 577.508 595.826 572.237 612.632C569.49 621.391 566.737 625.917 560.043 632.68C553.631 639.158 543.575 644.286 532.5 646.726C522.255 648.984 501.437 649.041 491.343 646.839C461.912 640.42 447.619 620.374 449.483 588.132C451.047 561.084 460.42 521.584 470.009 501.632C476.59 487.939 487.236 478.078 499.762 474.074C507.624 471.56 518.502 471.589 525.775 474.141ZM389.384 484.362C395.107 486.072 401.281 492.491 402.955 498.473C406.617 511.549 396.619 525.041 383.218 525.11C364.274 525.207 354.944 501.775 368.761 488.803C374.23 483.668 381.688 482.062 389.384 484.362ZM648.277 484.192C656.216 486.397 662.933 495.325 662.978 503.733C663.025 512.411 659.127 518.893 651.611 522.639C642.535 527.161 632.471 525.166 626.243 517.61C613.065 501.623 628.229 478.625 648.277 484.192Z" stroke="url(#paint3_linear_40_29)" stroke-opacity="0.4" stroke-width="7" stroke-linejoin="round"/>
</g>
<g style="mix-blend-mode:hard-light" filter="url(#filter4_ddif_40_29)">
<path fill-rule="evenodd" clip-rule="evenodd" d="M253.555 253.691C234.166 257.325 210.787 267.678 194.817 279.704C167.671 300.145 143 336.666 143 356.409C143 364.909 148.741 370.132 158.085 370.132C161.927 370.132 162.182 370.298 161.535 372.382C161.15 373.62 160.598 381.832 160.308 390.632C159.843 404.693 160.039 407.723 161.922 415.632C165.896 432.325 175.89 449.337 188.675 461.172C204.384 475.712 222.721 483.721 246.31 486.344C256.49 487.476 257.088 487.667 256.498 489.589C255.106 494.128 254.72 539.224 255.981 549.919C259.914 583.268 273.139 615.139 294.865 643.632C306.099 658.365 327.932 678.511 345 689.893C389.521 719.583 458.858 734.6 535.26 731.098C567.926 729.601 590.289 726.361 615.5 719.475C682.821 701.087 736.946 652.57 757.886 591.84C766.113 567.983 768.638 548.162 767.596 515.632C767.226 504.082 766.675 493.013 766.37 491.033L765.817 487.435L774.158 486.74C817.12 483.16 850.475 457.074 861.243 418.632C863.868 409.261 864.639 388.453 862.753 377.882L861.37 370.132L865.435 370.13C873.132 370.128 881 363.641 881 357.298C881 349.587 875.454 334.787 868.01 322.632C833.048 265.543 764.751 237.996 710.358 259.044C700.723 262.772 689.715 269.233 678 278.038C667.891 285.635 644.942 308.477 640 315.862C637.584 319.472 636.036 320.902 635 320.482C615.25 312.464 578.262 303.843 547 299.972C533.368 298.284 489.859 298.263 475.5 299.938C447.293 303.227 421.534 308.84 399.752 316.442L387.004 320.891L382.317 314.262C376.27 305.71 356.765 286.218 346.479 278.449C331.01 266.765 317.133 259.319 303 255.12C293.122 252.185 265.803 251.396 253.555 253.691ZM525.775 474.141C542.235 479.919 552.81 493.069 560.962 517.895C572.367 552.627 577.508 595.826 572.237 612.632C569.49 621.391 566.737 625.917 560.043 632.68C553.631 639.158 543.575 644.286 532.5 646.726C522.255 648.984 501.437 649.041 491.343 646.839C461.912 640.42 447.619 620.374 449.483 588.132C451.047 561.084 460.42 521.584 470.009 501.632C476.59 487.939 487.236 478.078 499.762 474.074C507.624 471.56 518.502 471.589 525.775 474.141ZM389.384 484.362C395.107 486.072 401.281 492.491 402.955 498.473C406.617 511.549 396.619 525.041 383.218 525.11C364.274 525.207 354.944 501.775 368.761 488.803C374.23 483.668 381.688 482.062 389.384 484.362ZM648.277 484.192C656.216 486.397 662.933 495.325 662.978 503.733C663.025 512.411 659.127 518.893 651.611 522.639C642.535 527.161 632.471 525.166 626.243 517.61C613.065 501.623 628.229 478.625 648.277 484.192Z" stroke="url(#paint4_linear_40_29)" stroke-opacity="0.01" stroke-width="5" stroke-linejoin="round"/>
</g>
<g filter="url(#filter5_f_40_29)">
<path fill-rule="evenodd" clip-rule="evenodd" d="M253.555 253.691C234.166 257.325 210.787 267.678 194.817 279.704C167.671 300.145 143 336.666 143 356.409C143 364.909 148.741 370.132 158.085 370.132C161.927 370.132 162.182 370.298 161.535 372.382C161.15 373.62 160.598 381.832 160.308 390.632C159.843 404.693 160.039 407.723 161.922 415.632C165.896 432.325 175.89 449.337 188.675 461.172C204.384 475.712 222.721 483.721 246.31 486.344C256.49 487.476 257.088 487.667 256.498 489.589C255.106 494.128 254.72 539.224 255.981 549.919C259.914 583.268 273.139 615.139 294.865 643.632C306.099 658.365 327.932 678.511 345 689.893C389.521 719.583 458.858 734.6 535.26 731.098C567.926 729.601 590.289 726.361 615.5 719.475C682.821 701.087 736.946 652.57 757.886 591.84C766.113 567.983 768.638 548.162 767.596 515.632C767.226 504.082 766.675 493.013 766.37 491.033L765.817 487.435L774.158 486.74C817.12 483.16 850.475 457.074 861.243 418.632C863.868 409.261 864.639 388.453 862.753 377.882L861.37 370.132L865.435 370.13C873.132 370.128 881 363.641 881 357.298C881 349.587 875.454 334.787 868.01 322.632C833.048 265.543 764.751 237.996 710.358 259.044C700.723 262.772 689.715 269.233 678 278.038C667.891 285.635 644.942 308.477 640 315.862C637.584 319.472 636.036 320.902 635 320.482C615.25 312.464 578.262 303.843 547 299.972C533.368 298.284 489.859 298.263 475.5 299.938C447.293 303.227 421.534 308.84 399.752 316.442L387.004 320.891L382.317 314.262C376.27 305.71 356.765 286.218 346.479 278.449C331.01 266.765 317.133 259.319 303 255.12C293.122 252.185 265.803 251.396 253.555 253.691ZM525.775 474.141C542.235 479.919 552.81 493.069 560.962 517.895C572.367 552.627 577.508 595.826 572.237 612.632C569.49 621.391 566.737 625.917 560.043 632.68C553.631 639.158 543.575 644.286 532.5 646.726C522.255 648.984 501.437 649.041 491.343 646.839C461.912 640.42 447.619 620.374 449.483 588.132C451.047 561.084 460.42 521.584 470.009 501.632C476.59 487.939 487.236 478.078 499.762 474.074C507.624 471.56 518.502 471.589 525.775 474.141ZM389.384 484.362C395.107 486.072 401.281 492.491 402.955 498.473C406.617 511.549 396.619 525.041 383.218 525.11C364.274 525.207 354.944 501.775 368.761 488.803C374.23 483.668 381.688 482.062 389.384 484.362ZM648.277 484.192C656.216 486.397 662.933 495.325 662.978 503.733C663.025 512.411 659.127 518.893 651.611 522.639C642.535 527.161 632.471 525.166 626.243 517.61C613.065 501.623 628.229 478.625 648.277 484.192Z" stroke="url(#paint5_linear_40_29)" stroke-width="9.5" stroke-linejoin="round"/>
</g>
<g filter="url(#filter6_f_40_29)">
<path fill-rule="evenodd" clip-rule="evenodd" d="M253.555 253.691C234.166 257.325 210.787 267.678 194.817 279.704C167.671 300.145 143 336.666 143 356.409C143 364.909 148.741 370.132 158.085 370.132C161.927 370.132 162.182 370.298 161.535 372.382C161.15 373.62 160.598 381.832 160.308 390.632C159.843 404.693 160.039 407.723 161.922 415.632C165.896 432.325 175.89 449.337 188.675 461.172C204.384 475.712 222.721 483.721 246.31 486.344C256.49 487.476 257.088 487.667 256.498 489.589C255.106 494.128 254.72 539.224 255.981 549.919C259.914 583.268 273.139 615.139 294.865 643.632C306.099 658.365 327.932 678.511 345 689.893C389.521 719.583 458.858 734.6 535.26 731.098C567.926 729.601 590.289 726.361 615.5 719.475C682.821 701.087 736.946 652.57 757.886 591.84C766.113 567.983 768.638 548.162 767.596 515.632C767.226 504.082 766.675 493.013 766.37 491.033L765.817 487.435L774.158 486.74C817.12 483.16 850.475 457.074 861.243 418.632C863.868 409.261 864.639 388.453 862.753 377.882L861.37 370.132L865.435 370.13C873.132 370.128 881 363.641 881 357.298C881 349.587 875.454 334.787 868.01 322.632C833.048 265.543 764.751 237.996 710.358 259.044C700.723 262.772 689.715 269.233 678 278.038C667.891 285.635 644.942 308.477 640 315.862C637.584 319.472 636.036 320.902 635 320.482C615.25 312.464 578.262 303.843 547 299.972C533.368 298.284 489.859 298.263 475.5 299.938C447.293 303.227 421.534 308.84 399.752 316.442L387.004 320.891L382.317 314.262C376.27 305.71 356.765 286.218 346.479 278.449C331.01 266.765 317.133 259.319 303 255.12C293.122 252.185 265.803 251.396 253.555 253.691ZM525.775 474.141C542.235 479.919 552.81 493.069 560.962 517.895C572.367 552.627 577.508 595.826 572.237 612.632C569.49 621.391 566.737 625.917 560.043 632.68C553.631 639.158 543.575 644.286 532.5 646.726C522.255 648.984 501.437 649.041 491.343 646.839C461.912 640.42 447.619 620.374 449.483 588.132C451.047 561.084 460.42 521.584 470.009 501.632C476.59 487.939 487.236 478.078 499.762 474.074C507.624 471.56 518.502 471.589 525.775 474.141ZM389.384 484.362C395.107 486.072 401.281 492.491 402.955 498.473C406.617 511.549 396.619 525.041 383.218 525.11C364.274 525.207 354.944 501.775 368.761 488.803C374.23 483.668 381.688 482.062 389.384 484.362ZM648.277 484.192C656.216 486.397 662.933 495.325 662.978 503.733C663.025 512.411 659.127 518.893 651.611 522.639C642.535 527.161 632.471 525.166 626.243 517.61C613.065 501.623 628.229 478.625 648.277 484.192Z" stroke="white" stroke-width="2.9" stroke-linejoin="round"/>
</g>
<defs>
<filter id="filter0_f_40_29" x="-42" y="0" width="1108" height="1032" filterUnits="userSpaceOnUse" color-interpolation-filters="sRGB">
<feFlood flood-opacity="0" result="BackgroundImageFix"/>
<feBlend mode="normal" in="SourceGraphic" in2="BackgroundImageFix" result="shape"/>
<feGaussianBlur stdDeviation="150" result="effect1_foregroundBlur_40_29"/>
</filter>
<filter id="filter1_f_40_29" x="118.94" y="227.932" width="786.12" height="527.726" filterUnits="userSpaceOnUse" color-interpolation-filters="sRGB">
<feFlood flood-opacity="0" result="BackgroundImageFix"/>
<feBlend mode="normal" in="SourceGraphic" in2="BackgroundImageFix" result="shape"/>
<feGaussianBlur stdDeviation="10.53" result="effect1_foregroundBlur_40_29"/>
</filter>
<filter id="filter2_f_40_29" x="89" y="197.99" width="846" height="587.608" filterUnits="userSpaceOnUse" color-interpolation-filters="sRGB">
<feFlood flood-opacity="0" result="BackgroundImageFix"/>
<feBlend mode="normal" in="SourceGraphic" in2="BackgroundImageFix" result="shape"/>
<feGaussianBlur stdDeviation="25" result="effect1_foregroundBlur_40_29"/>
</filter>
<filter id="filter3_f_40_29" x="132.48" y="241.471" width="759.04" height="500.647" filterUnits="userSpaceOnUse" color-interpolation-filters="sRGB">
<feFlood flood-opacity="0" result="BackgroundImageFix"/>
<feBlend mode="normal" in="SourceGraphic" in2="BackgroundImageFix" result="shape"/>
<feGaussianBlur stdDeviation="3.51" result="effect1_foregroundBlur_40_29"/>
</filter>
<filter id="filter4_ddif_40_29" x="110.5" y="219.494" width="803" height="544.604" filterUnits="userSpaceOnUse" color-interpolation-filters="sRGB">
<feFlood flood-opacity="0" result="BackgroundImageFix"/>
<feColorMatrix in="SourceAlpha" type="matrix" values="0 0 0 0 0 0 0 0 0 0 0 0 0 0 0 0 0 0 127 0" result="hardAlpha"/>
<feOffset dy="3.9"/>
<feGaussianBlur stdDeviation="1.5"/>
<feColorMatrix type="matrix" values="0 0 0 0 0.109804 0 0 0 0 0.886275 0 0 0 0 0.968627 0 0 0 1 0"/>
<feBlend mode="multiply" in2="BackgroundImageFix" result="effect1_dropShadow_40_29"/>
<feColorMatrix in="SourceAlpha" type="matrix" values="0 0 0 0 0 0 0 0 0 0 0 0 0 0 0 0 0 0 127 0" result="hardAlpha"/>
<feOffset dy="7.02"/>
<feGaussianBlur stdDeviation="4.563"/>
<feColorMatrix type="matrix" values="0 0 0 0 0.819608 0 0 0 0 0.054902 0 0 0 0 0.996078 0 0 0 1 0"/>
<feBlend mode="color-dodge" in2="effect1_dropShadow_40_29" result="effect2_dropShadow_40_29"/>
<feBlend mode="normal" in="SourceGraphic" in2="effect2_dropShadow_40_29" result="shape"/>
<feColorMatrix in="SourceAlpha" type="matrix" values="0 0 0 0 0 0 0 0 0 0 0 0 0 0 0 0 0 0 127 0" result="hardAlpha"/>
<feOffset dx="-0.39" dy="0.78"/>
<feGaussianBlur stdDeviation="0.195"/>
<feComposite in2="hardAlpha" operator="arithmetic" k2="-1" k3="1"/>
<feColorMatrix type="matrix" values="0 0 0 0 1 0 0 0 0 1 0 0 0 0 1 0 0 0 1 0"/>
<feBlend mode="normal" in2="shape" result="effect3_innerShadow_40_29"/>
<feGaussianBlur stdDeviation="15" result="effect4_foregroundBlur_40_29"/>
</filter>
<filter id="filter5_f_40_29" x="137.15" y="246.138" width="749.7" height="491.31" filterUnits="userSpaceOnUse" color-interpolation-filters="sRGB">
<feFlood flood-opacity="0" result="BackgroundImageFix"/>
<feBlend mode="normal" in="SourceGraphic" in2="BackgroundImageFix" result="shape"/>
<feGaussianBlur stdDeviation="0.55" result="effect1_foregroundBlur_40_29"/>
</filter>
<filter id="filter6_f_40_29" x="137.15" y="246.146" width="749.7" height="491.302" filterUnits="userSpaceOnUse" color-interpolation-filters="sRGB">
<feFlood flood-opacity="0" result="BackgroundImageFix"/>
<feBlend mode="normal" in="SourceGraphic" in2="BackgroundImageFix" result="shape"/>
<feGaussianBlur stdDeviation="2.2" result="effect1_foregroundBlur_40_29"/>
</filter>
<radialGradient id="paint0_radial_40_29" cx="0" cy="0" r="1" gradientUnits="userSpaceOnUse" gradientTransform="translate(512 516) rotate(20.8768) scale(331.625 512.736)">
<stop stop-color="#0CF6F7"/>
<stop offset="1" stop-color="#D10EFE"/>
</radialGradient>
<linearGradient id="paint1_linear_40_29" x1="826.587" y1="628.647" x2="310.413" y2="316.853" gradientUnits="userSpaceOnUse">
<stop stop-color="#0CF6F7"/>
<stop offset="0.461563" stop-color="#6B86FA"/>
<stop offset="1" stop-color="#D10EFE"/>
</linearGradient>
<linearGradient id="paint2_linear_40_29" x1="826.587" y1="628.647" x2="310.413" y2="316.853" gradientUnits="userSpaceOnUse">
<stop stop-color="#0CF6F7"/>
<stop offset="0.225986" stop-color="#6B86FA"/>
<stop offset="0.673077" stop-color="#6B86FA"/>
<stop offset="1" stop-color="#D10EFE"/>
</linearGradient>
<linearGradient id="paint3_linear_40_29" x1="826.587" y1="628.647" x2="310.413" y2="316.853" gradientUnits="userSpaceOnUse">
<stop stop-color="#0CF6F7"/>
<stop offset="0.225986" stop-color="#6B86FA"/>
<stop offset="0.673077" stop-color="#6B86FA"/>
<stop offset="1" stop-color="#D10EFE"/>
</linearGradient>
<linearGradient id="paint4_linear_40_29" x1="826.587" y1="628.647" x2="310.413" y2="316.853" gradientUnits="userSpaceOnUse">
<stop stop-color="#0CF6F7"/>
<stop offset="0.225986" stop-color="#6B86FA"/>
<stop offset="0.673077" stop-color="#6B86FA"/>
<stop offset="1" stop-color="#D10EFE"/>
</linearGradient>
<linearGradient id="paint5_linear_40_29" x1="826.587" y1="628.647" x2="310.413" y2="316.853" gradientUnits="userSpaceOnUse">
<stop stop-color="#0CF6F7"/>
<stop offset="0.461563" stop-color="#6B86FA"/>
<stop offset="1" stop-color="#D10EFE"/>
</linearGradient>
</defs>
</svg>
